<svg width="40" height="41" viewBox="0 0 40 41" fill="none" xmlns="http://www.w3.org/2000/svg">
<g id="Vector">
<mask id="path-1-inside-1_123_1418" fill="white">
<path d="M39.8507 20.6538C39.8507 31.6292 30.9546 40.522 19.9825 40.522C9.01032 40.522 0.114258 31.6292 0.114258 20.6538C0.114258 9.68491 9.01032 0.785645 19.9825 0.785645C30.9546 0.785645 39.8507 9.68491 39.8507 20.6538ZM19.9825 24.6595C17.9472 24.6595 16.2972 26.3095 16.2972 28.3448C16.2972 30.38 17.9472 32.03 19.9825 32.03C22.0177 32.03 23.6677 30.38 23.6677 28.3448C23.6677 26.3095 22.0177 24.6595 19.9825 24.6595ZM16.4837 11.413L17.0779 22.3085C17.1057 22.8184 17.5273 23.2175 18.0379 23.2175H21.9271C22.4376 23.2175 22.8592 22.8184 22.887 22.3085L23.4813 11.413C23.5113 10.8623 23.0728 10.3993 22.5213 10.3993H17.4435C16.892 10.3993 16.4536 10.8623 16.4837 11.413Z"/>
</mask>
<path d="M39.8507 20.6538C39.8507 31.6292 30.9546 40.522 19.9825 40.522C9.01032 40.522 0.114258 31.6292 0.114258 20.6538C0.114258 9.68491 9.01032 0.785645 19.9825 0.785645C30.9546 0.785645 39.8507 9.68491 39.8507 20.6538ZM19.9825 24.6595C17.9472 24.6595 16.2972 26.3095 16.2972 28.3448C16.2972 30.38 17.9472 32.03 19.9825 32.03C22.0177 32.03 23.6677 30.38 23.6677 28.3448C23.6677 26.3095 22.0177 24.6595 19.9825 24.6595ZM16.4837 11.413L17.0779 22.3085C17.1057 22.8184 17.5273 23.2175 18.0379 23.2175H21.9271C22.4376 23.2175 22.8592 22.8184 22.887 22.3085L23.4813 11.413C23.5113 10.8623 23.0728 10.3993 22.5213 10.3993H17.4435C16.892 10.3993 16.4536 10.8623 16.4837 11.413Z" fill="white"/>
<path d="M16.4837 11.413L18.4675 11.3048L18.4675 11.3048L16.4837 11.413ZM17.0779 22.3085L19.0618 22.2003L19.0618 22.2003L17.0779 22.3085ZM22.887 22.3085L20.9031 22.2003L20.9031 22.2003L22.887 22.3085ZM23.4813 11.413L21.4974 11.3048L21.4974 11.3048L23.4813 11.413ZM37.8638 20.6538C37.8638 30.5317 29.8575 38.5352 19.9825 38.5352V42.5089C32.0517 42.5089 41.8375 32.7267 41.8375 20.6538H37.8638ZM19.9825 38.5352C10.1074 38.5352 2.10108 30.5317 2.10108 20.6538H-1.87256C-1.87256 32.7267 7.91324 42.5089 19.9825 42.5089V38.5352ZM2.10108 20.6538C2.10108 10.782 10.1078 2.77246 19.9825 2.77246V-1.20118C7.91282 -1.20118 -1.87256 8.58783 -1.87256 20.6538H2.10108ZM19.9825 2.77246C29.8571 2.77246 37.8638 10.782 37.8638 20.6538H41.8375C41.8375 8.58783 32.0521 -1.20118 19.9825 -1.20118V2.77246ZM19.9825 22.6727C16.8499 22.6727 14.3104 25.2122 14.3104 28.3448H18.284C18.284 27.4068 19.0445 26.6463 19.9825 26.6463V22.6727ZM14.3104 28.3448C14.3104 31.4773 16.8499 34.0168 19.9825 34.0168V30.0432C19.0445 30.0432 18.284 29.2828 18.284 28.3448H14.3104ZM19.9825 34.0168C23.115 34.0168 25.6545 31.4773 25.6545 28.3448H21.6809C21.6809 29.2828 20.9205 30.0432 19.9825 30.0432V34.0168ZM25.6545 28.3448C25.6545 25.2122 23.115 22.6727 19.9825 22.6727V26.6463C20.9205 26.6463 21.6809 27.4068 21.6809 28.3448H25.6545ZM14.4998 11.5213L15.0941 22.4167L19.0618 22.2003L18.4675 11.3048L14.4998 11.5213ZM15.0941 22.4167C15.1793 23.9804 16.4722 25.2043 18.0379 25.2043V21.2307C18.5824 21.2307 19.0321 21.6563 19.0618 22.2003L15.0941 22.4167ZM18.0379 25.2043H21.9271V21.2307H18.0379V25.2043ZM21.9271 25.2043C23.4927 25.2043 24.7856 23.9804 24.8709 22.4167L20.9031 22.2003C20.9328 21.6563 21.3825 21.2307 21.9271 21.2307V25.2043ZM24.8708 22.4167L25.4651 11.5213L21.4974 11.3048L20.9031 22.2003L24.8708 22.4167ZM25.4651 11.5213C25.5573 9.83253 24.2127 8.41247 22.5213 8.41247V12.3861C21.9329 12.3861 21.4654 11.8922 21.4974 11.3048L25.4651 11.5213ZM22.5213 8.41247H17.4435V12.3861H22.5213V8.41247ZM17.4435 8.41247C15.7519 8.41247 14.4077 9.83275 14.4998 11.5213L18.4675 11.3048C18.4995 11.8919 18.0321 12.3861 17.4435 12.3861V8.41247Z" fill="black" mask="url(#path-1-inside-1_123_1418)"/>
</g>
</svg>
