<svg width="78" height="79" viewBox="0 0 78 79" fill="none" xmlns="http://www.w3.org/2000/svg">
<g id="Arrow">
<g id="Ellipse 1" filter="url(#filter0_dddd_122_661)">
<circle cx="37.5" cy="38" r="24" fill="#12AB69"/>
</g>
<path id="Vector" d="M36.342 27.6075L37.6055 26.3875C38.1404 25.8708 39.0055 25.8708 39.5348 26.3875L50.5988 37.0657C51.1337 37.5823 51.1337 38.4177 50.5988 38.9288L39.5348 49.6125C38.9998 50.1292 38.1348 50.1292 37.6055 49.6125L36.342 48.3925C35.8013 47.8704 35.8127 47.0185 36.3647 46.5074L43.2228 40.1983H26.8659C26.109 40.1983 25.5 39.6103 25.5 38.8793V37.1207C25.5 36.3897 26.109 35.8017 26.8659 35.8017H43.2228L36.3647 29.4926C35.807 28.9815 35.7956 28.1296 36.342 27.6075Z" fill="white"/>
</g>
<defs>
<filter id="filter0_dddd_122_661" x="-4.76837e-07" y="0.5" width="78" height="78" filterUnits="userSpaceOnUse" color-interpolation-filters="sRGB">
<feFlood flood-opacity="0" result="BackgroundImageFix"/>
<feColorMatrix in="SourceAlpha" type="matrix" values="0 0 0 0 0 0 0 0 0 0 0 0 0 0 0 0 0 0 127 0" result="hardAlpha"/>
<feOffset dx="1.5" dy="1.5"/>
<feGaussianBlur stdDeviation="0.75"/>
<feComposite in2="hardAlpha" operator="out"/>
<feColorMatrix type="matrix" values="0 0 0 0 0 0 0 0 0 0 0 0 0 0 0 0 0 0 0.25 0"/>
<feBlend mode="normal" in2="BackgroundImageFix" result="effect1_dropShadow_122_661"/>
<feColorMatrix in="SourceAlpha" type="matrix" values="0 0 0 0 0 0 0 0 0 0 0 0 0 0 0 0 0 0 127 0" result="hardAlpha"/>
<feOffset dx="4.5" dy="4.5"/>
<feGaussianBlur stdDeviation="6"/>
<feComposite in2="hardAlpha" operator="out"/>
<feColorMatrix type="matrix" values="0 0 0 0 0 0 0 0 0 0 0 0 0 0 0 0 0 0 0.25 0"/>
<feBlend mode="normal" in2="effect1_dropShadow_122_661" result="effect2_dropShadow_122_661"/>
<feColorMatrix in="SourceAlpha" type="matrix" values="0 0 0 0 0 0 0 0 0 0 0 0 0 0 0 0 0 0 127 0" result="hardAlpha"/>
<feOffset dx="-1.5" dy="-1.5"/>
<feGaussianBlur stdDeviation="1.125"/>
<feComposite in2="hardAlpha" operator="out"/>
<feColorMatrix type="matrix" values="0 0 0 0 1 0 0 0 0 1 0 0 0 0 1 0 0 0 0.35 0"/>
<feBlend mode="normal" in2="effect2_dropShadow_122_661" result="effect3_dropShadow_122_661"/>
<feColorMatrix in="SourceAlpha" type="matrix" values="0 0 0 0 0 0 0 0 0 0 0 0 0 0 0 0 0 0 127 0" result="hardAlpha"/>
<feOffset dx="-6" dy="-6"/>
<feGaussianBlur stdDeviation="3.75"/>
<feComposite in2="hardAlpha" operator="out"/>
<feColorMatrix type="matrix" values="0 0 0 0 1 0 0 0 0 1 0 0 0 0 1 0 0 0 0.15 0"/>
<feBlend mode="normal" in2="effect3_dropShadow_122_661" result="effect4_dropShadow_122_661"/>
<feBlend mode="normal" in="SourceGraphic" in2="effect4_dropShadow_122_661" result="shape"/>
</filter>
</defs>
</svg>
