<svg width="32" height="33" viewBox="0 0 32 33" fill="none" xmlns="http://www.w3.org/2000/svg">
<path id="Union" d="M15.9548 2.5799C19.3488 2.5799 21.9476 5.07975 21.9476 7.9835H23.9345C23.9345 3.82131 20.2777 0.593077 15.9548 0.593077V2.5799ZM9.96204 7.9835C9.96204 5.07975 12.5609 2.5799 15.9548 2.5799V0.593077C11.632 0.593077 7.97522 3.8213 7.97522 7.9835H9.96204ZM15.9548 13.3871C12.5609 13.3871 9.96204 10.8872 9.96204 7.9835H7.97522C7.97522 12.1457 11.632 15.3739 15.9548 15.3739V13.3871ZM21.9476 7.9835C21.9476 10.8872 19.3488 13.3871 15.9548 13.3871V15.3739C20.2777 15.3739 23.9345 12.1457 23.9345 7.9835H21.9476ZM9.40401 17.4559C4.63954 17.4559 0.406004 21.1313 0.406004 26.1084H2.39282C2.39282 22.3544 5.60661 19.4427 9.40401 19.4427V17.4559ZM22.5031 17.4559H9.40401V19.4427H22.5031V17.4559ZM31.5012 26.1084C31.5012 21.1313 27.2676 17.4559 22.5031 17.4559V19.4427C26.3005 19.4427 29.5143 22.3544 29.5143 26.1084H31.5012ZM31.5012 28.7738V26.1084H29.5143V28.7738H31.5012ZM28.1794 32.0956C30.014 32.0956 31.5012 30.6084 31.5012 28.7738H29.5143C29.5143 29.5111 28.9167 30.1087 28.1794 30.1087V32.0956ZM3.72772 32.0956H28.1794V30.1087H3.72772V32.0956ZM0.406004 28.7738C0.406004 30.6084 1.89319 32.0956 3.72772 32.0956V30.1087C2.99048 30.1087 2.39282 29.5111 2.39282 28.7738H0.406004ZM0.406004 26.1084V28.7738H2.39282V26.1084H0.406004Z" fill="black"/>
</svg>
