<svg width="37" height="44" viewBox="0 0 37 44" fill="none" xmlns="http://www.w3.org/2000/svg">
<path id="Vector" d="M20.3649 36.5906V35.5972H19.3715H18.2953C8.74924 35.5972 0.99341 27.8414 0.99341 18.2953C0.99341 8.74924 8.74924 0.99341 18.2953 0.99341C27.8414 0.99341 35.5972 8.74924 35.5972 18.2953C35.5972 27.0965 29.7197 36.3303 20.3649 41.4227V36.5906ZM20.4477 32.203H21.4411V31.2096V26.9049V25.9114H20.4477H16.1429H15.1495V26.9049V31.2096V32.203H16.1429H20.4477ZM20.4477 24.6697H21.4411V23.6763C21.4411 21.776 22.6465 20.7181 24.3304 19.2447C25.9327 17.8427 27.8983 16.0956 27.8983 12.9143C27.8983 7.60891 23.6007 3.31137 18.2953 3.31137C12.9899 3.31137 8.69234 7.60891 8.69234 12.9143V13.9077H9.68575H13.9905H14.9839V12.9143C14.9839 11.0953 16.4763 9.60296 18.2953 9.60296C20.1143 9.60296 21.6067 11.0953 21.6067 12.9143C21.6067 13.6939 21.3319 14.238 20.8569 14.7591C20.4625 15.1919 19.985 15.5582 19.4048 16.0033C19.2011 16.1595 18.9847 16.3255 18.7549 16.5075C17.9191 17.1692 17.0002 17.9806 16.3019 19.1347C15.5944 20.304 15.1495 21.7628 15.1495 23.6763V24.6697H16.1429H20.4477Z" fill="white" stroke="black" stroke-width="1.98682"/>
</svg>
