<svg width="37" height="37" viewBox="0 0 37 37" fill="none" xmlns="http://www.w3.org/2000/svg">
<path id="Vector" d="M0.962336 32.9295L0.962335 32.9289L0.942099 4.59892C0.942099 4.59884 0.942099 4.59876 0.942099 4.59868C0.942231 2.82461 2.37795 1.37954 4.14125 1.37954H32.4921C34.2608 1.37954 35.7114 2.83015 35.7114 4.59892V24.4921L24.0547 36.1489H4.16148C2.39811 36.1489 0.962336 34.7037 0.962336 32.9295ZM8.20871 9.84192H7.38087V10.6698V14.717V15.5448H8.20871H28.4448H29.2727V14.717V10.6698V9.84192H28.4448H8.20871ZM18.3268 23.6393H19.1546V22.8114V18.7642V17.9364H18.3268H8.20871H7.38087V18.7642V22.8114V23.6393H8.20871H18.3268ZM21.5462 33.9413V35.9399L22.9594 34.5267L34.0892 23.3968L35.5025 21.9836H33.5039H22.374H21.5462V22.8114V33.9413Z" stroke="black" stroke-width="1.65568"/>
</svg>
