<svg width="52" height="51" viewBox="0 0 52 51" fill="none" xmlns="http://www.w3.org/2000/svg">
<path id="Vector" d="M25.9901 13.1094C18.7958 13.1094 12.9928 18.8283 12.9928 25.9183C12.9928 33.0084 18.7958 38.7272 25.9901 38.7272C33.1844 38.7272 38.9874 33.0084 38.9874 25.9183C38.9874 18.8283 33.1844 13.1094 25.9901 13.1094ZM25.9901 34.2458C21.3409 34.2458 17.5402 30.5112 17.5402 25.9183C17.5402 21.3254 21.3296 17.5909 25.9901 17.5909C30.6506 17.5909 34.44 21.3254 34.44 25.9183C34.44 30.5112 30.6392 34.2458 25.9901 34.2458ZM42.5506 12.5855C42.5506 14.2465 41.1932 15.5731 39.519 15.5731C37.8336 15.5731 36.4874 14.2353 36.4874 12.5855C36.4874 10.9356 37.8449 9.59783 39.519 9.59783C41.1932 9.59783 42.5506 10.9356 42.5506 12.5855ZM51.1589 15.6177C50.9666 11.6156 50.039 8.07057 47.064 5.14983C44.1003 2.22909 40.5031 1.31496 36.4422 1.1143C32.2568 0.880194 19.712 0.880194 15.5267 1.1143C11.477 1.30381 7.87988 2.21794 4.90487 5.13868C1.92987 8.05942 1.01361 11.6044 0.809997 15.6065C0.572449 19.7312 0.572449 32.0942 0.809997 36.2189C1.0023 40.221 1.92987 43.7661 4.90487 46.6868C7.87988 49.6075 11.4657 50.5217 15.5267 50.7223C19.712 50.9564 32.2568 50.9564 36.4422 50.7223C40.5031 50.5328 44.1003 49.6187 47.064 46.6868C50.0277 43.7661 50.9553 40.221 51.1589 36.2189C51.3964 32.0942 51.3964 19.7424 51.1589 15.6177ZM45.7518 40.6447C44.8695 42.8296 43.1614 44.513 40.933 45.3937C37.596 46.698 29.6777 46.397 25.9901 46.397C22.3024 46.397 14.3729 46.6868 11.0472 45.3937C8.83007 44.5241 7.12199 42.8408 6.22835 40.6447C4.90487 37.356 5.21029 29.5525 5.21029 25.9183C5.21029 22.2841 4.91618 14.4695 6.22835 11.192C7.11068 9.00699 8.81876 7.32366 11.0472 6.44298C14.3842 5.13868 22.3024 5.43967 25.9901 5.43967C29.6777 5.43967 37.6073 5.14983 40.933 6.44298C43.1501 7.31252 44.8582 8.99585 45.7518 11.192C47.0753 14.4806 46.7699 22.2841 46.7699 25.9183C46.7699 29.5525 47.0753 37.3672 45.7518 40.6447Z" fill="#0C633D"/>
</svg>
