<svg width="40" height="41" viewBox="0 0 40 41" fill="none" xmlns="http://www.w3.org/2000/svg">
<g id="Translate">
<path id="Vector" d="M31.6723 31.4552L28.1291 24.3854L24.5859 31.4552M25.2333 30.2002H31.0613" stroke="black" stroke-width="2.48353" stroke-linecap="round" stroke-linejoin="round"/>
<path id="Vector_2" d="M15.0351 10.2359H8.31306M11.6575 9.11007V10.2359M28.1266 36.9719C27.0219 36.9718 25.928 36.7541 24.9074 36.3312C23.8867 35.9084 22.9594 35.2886 22.1783 34.5074C21.3972 33.7261 20.7776 32.7986 20.355 31.778C19.9323 30.7573 19.7148 29.6633 19.7149 28.5586C19.715 27.4538 19.9327 26.3599 20.3556 25.3393C20.7785 24.3187 21.3982 23.3913 22.1795 22.6102C22.9607 21.8291 23.8882 21.2096 24.9089 20.7869C25.9296 20.3642 27.0235 20.1467 28.1283 20.1469C30.3594 20.1471 32.4991 21.0336 34.0766 22.6114C35.6541 24.1892 36.5402 26.3291 36.54 28.5602C36.5398 30.7914 35.6532 32.931 34.0754 34.5085C32.4976 36.086 30.3578 36.9721 28.1266 36.9719ZM8.42399 3.85825H14.9143C18.3415 3.85825 19.9972 5.51393 19.9144 8.85841V15.3487C19.9972 18.776 18.3415 20.4316 14.9143 20.3489H8.42399C5.07951 20.4151 3.42383 18.7594 3.42383 15.3321V8.84185C3.42383 5.51393 5.07951 3.85825 8.42399 3.85825Z" stroke="black" stroke-width="2.48353" stroke-linecap="round" stroke-linejoin="round"/>
<path id="Vector_3" d="M13.3448 10.2227C13.3448 13.1202 11.0765 15.4712 8.29492 15.4712" stroke="black" stroke-width="2.48353" stroke-linecap="round" stroke-linejoin="round"/>
<path id="Vector_4" d="M15.0308 15.4646C13.8221 15.4646 12.7294 14.8189 11.9678 13.7924" stroke="black" stroke-width="2.48353" stroke-linecap="round" stroke-linejoin="round"/>
<path id="Vector_5" opacity="0.4" d="M3.42383 25.3821C3.42383 31.7896 8.60612 36.9719 15.0136 36.9719L13.2751 34.0745M36.5375 15.448C36.5375 9.04053 31.3552 3.85825 24.9477 3.85825L26.6862 6.75569" stroke="black" stroke-width="2.48353" stroke-linecap="round" stroke-linejoin="round"/>
</g>
</svg>
