<svg width="55" height="45" viewBox="0 0 55 45" fill="none" xmlns="http://www.w3.org/2000/svg">
<g id="Group">
<path id="Vector" d="M54.3575 5.92167C52.3725 6.78853 50.24 7.37425 47.9982 7.639C50.2852 6.2895 52.0396 4.14811 52.8669 1.59907C50.7273 2.85016 48.3572 3.7592 45.8348 4.24651C43.8141 2.12856 40.9375 0.80249 37.7519 0.80249C31.6374 0.80249 26.6783 5.68972 26.6783 11.7203C26.6783 12.5731 26.7782 13.4025 26.9636 14.2037C17.7562 13.7469 9.59958 9.40084 4.13648 2.79862C3.18555 4.4152 2.63877 6.2895 2.63877 8.28563C2.63877 12.0717 4.59531 15.415 7.56459 17.3713C5.74831 17.3127 4.04139 16.8231 2.54843 16.0054V16.146C2.54843 21.4338 6.36404 25.8455 11.4325 26.8482C10.5006 27.0966 9.52351 27.2278 8.51552 27.2278C7.80232 27.2278 7.10577 27.1622 6.43061 27.0357C7.84036 31.37 11.9294 34.5282 16.7767 34.6125C12.9849 37.5411 8.20885 39.2865 3.02152 39.2865C2.12764 39.2865 1.24565 39.235 0.37793 39.1343C5.27998 42.2339 11.0997 44.0379 17.352 44.0379C37.7257 44.0379 48.8635 27.4082 48.8635 12.9854C48.8635 12.5169 48.8516 12.0436 48.8302 11.575C50.9936 10.0334 52.8717 8.1146 54.3528 5.9287L54.3575 5.92167Z" fill="#0C633D"/>
</g>
</svg>
